<svg xmlns="http://www.w3.org/2000/svg" xmlns:xlink="http://www.w3.org/1999/xlink" viewBox="0 0 82.8007 81.7941"><defs><style>.cls-1,.cls-4{fill:#fff;}.cls-1{stroke:#d8d8d8;stroke-linecap:round;stroke-miterlimit:10;stroke-width:0.5px;}.cls-2{fill:url(#New_Gradient_Swatch_1);}.cls-3{fill:#f2b43e;opacity:0.81;}</style><linearGradient id="New_Gradient_Swatch_1" x1="1.3043" y1="30.1541" x2="53.1609" y2="80.2315" gradientUnits="userSpaceOnUse"><stop offset="0" stop-color="#f7931e"/><stop offset="0.2919" stop-color="#f3b03a"/><stop offset="0.4972" stop-color="#f2b43e"/><stop offset="0.4972" stop-color="#f4c149"/><stop offset="0.4973" stop-color="#f6cc54"/><stop offset="0.4974" stop-color="#f8d35a"/><stop offset="0.4977" stop-color="#f8d55c"/></linearGradient></defs><title>factorio_tools_icon</title><g id="Layer_2" data-name="Layer 2"><g id="Layer_4" data-name="Layer 4"><polygon class="cls-1" points="82 15.794 62 55.794 71.59 57.22 82 15.794"/><polygon class="cls-1" points="65 0.794 25.53 10.421 27.284 19.169 65 0.794"/><path class="cls-2" d="M36,46.7941l-9-37-7,1,3,39-23,24,8,8,23-24,39,5,2-6ZM24.2753,16.4192a1.4735,1.4735,0,1,1,1.4734-1.4734A1.4734,1.4734,0,0,1,24.2753,16.4192Zm41.73,43.8484a1.4735,1.4735,0,1,1,1.4735-1.4735A1.4734,1.4734,0,0,1,66.0056,60.2676Z"/><polygon class="cls-3" points="22.686 50.48 21.882 51.318 29.856 58.987 31 57.794 34.726 58.272 37.296 47.154 35.704 46.716 22.686 50.48"/><polygon class="cls-4" points="37 44.794 21 48.794 33 60.794 37 44.794"/></g></g></svg>