<svg xmlns="http://www.w3.org/2000/svg" xmlns:xlink="http://www.w3.org/1999/xlink" viewBox="0 0 213.3912 81.7941"><defs><style>.cls-1,.cls-4{fill:#fff;}.cls-1{stroke:#d8d8d8;stroke-linecap:round;stroke-miterlimit:10;stroke-width:0.5px;}.cls-2{fill:url(#New_Gradient_Swatch_1);}.cls-3{fill:#f2b43e;opacity:0.81;}</style><linearGradient id="New_Gradient_Swatch_1" x1="131.8948" y1="30.1541" x2="183.7515" y2="80.2315" gradientUnits="userSpaceOnUse"><stop offset="0" stop-color="#f7931e"/><stop offset="0.2919" stop-color="#f3b03a"/><stop offset="0.4972" stop-color="#f2b43e"/><stop offset="0.4972" stop-color="#f4c149"/><stop offset="0.4973" stop-color="#f6cc54"/><stop offset="0.4974" stop-color="#f8d35a"/><stop offset="0.4977" stop-color="#f8d55c"/></linearGradient></defs><title>factorio_tools_logo_1</title><g id="Layer_2" data-name="Layer 2"><g id="Layer_4" data-name="Layer 4"><polygon class="cls-1" points="212.591 15.794 192.591 55.794 202.18 57.22 212.591 15.794"/><polygon class="cls-1" points="195.591 0.794 156.121 10.421 157.875 19.169 195.591 0.794"/><path class="cls-2" d="M166.5905,46.7941l-9-37-7,1,3,39-23,24,8,8,23-24,39,5,2-6ZM154.8658,16.4192a1.4735,1.4735,0,1,1,1.4735-1.4734A1.4733,1.4733,0,0,1,154.8658,16.4192Zm41.73,43.8484a1.4735,1.4735,0,1,1,1.4734-1.4735A1.4735,1.4735,0,0,1,196.5962,60.2676Z"/><polygon class="cls-3" points="153.276 50.48 152.473 51.318 160.447 58.987 161.591 57.794 165.316 58.272 167.886 47.154 166.295 46.716 153.276 50.48"/><polygon class="cls-4" points="167.591 44.794 151.591 48.794 163.591 60.794 167.591 44.794"/><path class="cls-4" d="M12.0811,6.3821h-8.44V17.054h6.5v2.8623h-6.5V33.6931H.293V3.52H12.0811Z"/><path class="cls-4" d="M24.8877,33.6931,23.626,26.0286H17.5137l-1.1153,7.6645H13.0508L17.7568,3.52h5.2871l5.1905,30.1733ZM17.9023,23.1663H23.19L20.376,5.8484Z"/><path class="cls-4" d="M43.7578,12.4456H40.41V7.886a1.7709,1.7709,0,0,0-.2911-1.2373,1.9079,1.9079,0,0,0-1.2128-.2666h-2.668a1.8963,1.8963,0,0,0-1.2373.2666,1.8951,1.8951,0,0,0-.2666,1.2373v21.49a1.9038,1.9038,0,0,0,.2666,1.2129,1.7719,1.7719,0,0,0,1.2373.291h2.668a1.7824,1.7824,0,0,0,1.2128-.291,1.7788,1.7788,0,0,0,.2911-1.2129v-4.56h3.3476v5.0937q0,3.8328-3.833,3.8321H35.22q-3.8321,0-3.832-3.8321V7.3523q0-3.832,3.832-3.8325h4.7051q3.8321,0,3.833,3.8325Z"/><path class="cls-4" d="M58.94,3.52V6.3821H54.0889v27.311H50.79V6.3821H45.9385V3.52Z"/><path class="cls-4" d="M65.44,3.52h4.9483q3.8306,0,3.832,3.8325V29.8606q0,3.8328-3.832,3.8325H65.44q-3.832,0-3.832-3.8325V7.3523Q61.6084,3.52,65.44,3.52Zm5.4815,25.8076V7.886a1.7715,1.7715,0,0,0-.291-1.2373,1.9084,1.9084,0,0,0-1.2129-.2666H66.41a1.9032,1.9032,0,0,0-1.212.2666,1.7715,1.7715,0,0,0-.291,1.2373V29.3274a1.7682,1.7682,0,0,0,.291,1.2368,1.8973,1.8973,0,0,0,1.212.2666H69.418a1.9025,1.9025,0,0,0,1.2129-.2666A1.7682,1.7682,0,0,0,70.9219,29.3274Z"/><path class="cls-4" d="M82.6123,21.08V33.6931H79.3135V3.52h8.78q3.8319,0,3.832,3.8325v9.896q0,3.4446-3.0069,3.7837l4.56,12.6611h-3.59L85.4746,21.08Zm0-14.6982V18.2185H87.124a1.889,1.889,0,0,0,1.2364-.2671,1.89,1.89,0,0,0,.2675-1.2368V7.886A1.8945,1.8945,0,0,0,88.36,6.6487a1.8953,1.8953,0,0,0-1.2364-.2666Z"/><path class="cls-4" d="M97.4561,3.52h3.2988V33.6931H97.4561Z"/><path class="cls-4" d="M110.166,3.52h4.9483q3.8306,0,3.832,3.8325V29.8606q0,3.8328-3.832,3.8325H110.166q-3.832,0-3.832-3.8325V7.3523Q106.334,3.52,110.166,3.52Zm5.4815,25.8076V7.886a1.7709,1.7709,0,0,0-.2911-1.2373,1.9079,1.9079,0,0,0-1.2128-.2666h-3.0079a1.903,1.903,0,0,0-1.2119.2666,1.7715,1.7715,0,0,0-.291,1.2373V29.3274a1.7682,1.7682,0,0,0,.291,1.2368,1.8971,1.8971,0,0,0,1.2119.2666h3.0079a1.902,1.902,0,0,0,1.2128-.2666A1.7676,1.7676,0,0,0,115.6475,29.3274Z"/><path class="cls-4" d="M21.4316,42.2048V48.19H14.7627V78.4568h-8.15V48.19H0V42.2048Z"/><path class="cls-4" d="M31.292,42.2048H38.93q7.1822,0,7.1826,6.27V72.13q0,6.3274-7.1826,6.3272H31.292q-7.2393,0-7.2393-6.3272V48.4749Q24.0527,42.2054,31.292,42.2048Zm6.6689,28.8418V49.615q0-1.4246-1.4824-1.4253H33.7432q-1.54,0-1.5391,1.4253V71.0466q0,1.426,1.5391,1.4253h2.7353Q37.9609,72.4719,37.9609,71.0466Z"/><path class="cls-4" d="M58.0244,42.2048h7.6377q7.1821,0,7.1826,6.27V72.13q0,6.3274-7.1826,6.3272H58.0244q-7.2393,0-7.2392-6.3272V48.4749Q50.7852,42.2054,58.0244,42.2048Zm6.669,28.8418V49.615q0-1.4246-1.4825-1.4253H60.4756q-1.54,0-1.5391,1.4253V71.0466q0,1.426,1.5391,1.4253h2.7353Q64.6934,72.4719,64.6934,71.0466Z"/><path class="cls-4" d="M85.8408,72.4719H96.2715v5.9849H77.7471V42.2048h8.0937Z"/><path class="cls-4" d="M111.49,71.0466V64.492a1.3815,1.3815,0,0,0-.3418-1.0547,1.7778,1.7778,0,0,0-1.1972-.3135h-5.0157q-6.7265,0-6.7265-6.3838V48.4749q0-6.27,7.1826-6.27h6.9531q7.1821,0,7.1826,6.27v4.7309H111.376V49.615q0-1.4246-1.5391-1.4253h-1.9375q-1.54,0-1.539,1.4253v6.3838a1.38,1.38,0,0,0,.3417,1.0547,1.7738,1.7738,0,0,0,1.1973.3135h4.9014q3.6474,0,5.2441,1.5673a6.2364,6.2364,0,0,1,1.5967,4.6455v8.55q0,6.3274-7.1826,6.3272h-6.8965q-7.2407,0-7.2393-6.3272V67.4558h8.1514v3.5908q0,1.426,1.5381,1.4253h1.9385Q111.4907,72.4719,111.49,71.0466Z"/></g></g></svg>